# xmcd
#
# Track frame offsets:
#	150
#	3447
#	31962
#	53450
#	78550
#	100682
#	125587
#	155045
#	173507
#	195325
#	213287
#	229392
#
# Disc length: 3379 seconds
#
# Revision: 1
# Processed by: cddbd v1.4b42PL1 Copyright (c) Steve Scherf et al.
# Submitted via: audiograbber 1.80
#
DISCID=8e0d310c
DTITLE=Barry White - I did it for Love
DYEAR=1900
DGENRE=
TTITLE0=Barry White - Welcome Aboard
TTITLE1=Barry White - My Laboratory
TTITLE2=Barry White - Antigua Blue
TTITLE3=Barry White - Never,Never Say Goodbye
TTITLE4=Barry White - Bayou
TTITLE5=Barry White - High Steppin' Hip Dressin' Falla
TTITLE6=Barry White - Take A Good Look
TTITLE7=Barry White - Easin'
TTITLE8=Barry White - I Did It For Love
TTITLE9=Barry White - I'm So Glad That I'm A Woman
TTITLE10=Barry White - He's Mine
TTITLE11=Barry White - Jamaican Girl
EXTD=
EXTT0=
EXTT1=
EXTT2=
EXTT3=
EXTT4=
EXTT5=
EXTT6=
EXTT7=
EXTT8=
EXTT9=
EXTT10=
EXTT11=
PLAYORDER=
